# xmcd
#
# Track frame offsets:
#	150
#	22562
#	42661
#	58822
#	81213
#	98884
#	117555
#	134634
#
# Disc length: 2015 seconds
#
# Revision: 1
# Processed by: cddbd v1.5.2PL0 Copyright (c) Steve Scherf et al.
# Submitted via: EZCDAudioConverter 8.0.2.1
#
DISCID=6c07dd08
DTITLE=Trung Anh - Mùa Xuân Làng Lúa Làng Hoa
DYEAR=2011
DGENRE=Traditional Country
TTITLE0=Chuyến đò quê hương
TTITLE1=Đôi bờ sông quê
TTITLE2=Dòng sông và tiếng hát
TTITLE3=Về quê
TTITLE4=Phố xa
TTITLE5=Mùa Xuân Làng Lúa Làng Hoa
TTITLE6=Đôi mắt đò ngang
TTITLE7=Tình yêu bên một dòng sông
EXTD=
EXTT0=
EXTT1=
EXTT2=
EXTT3=
EXTT4=
EXTT5=
EXTT6=
EXTT7=
PLAYORDER=
